<?xml version="1.0" standalone="no"?>
<!DOCTYPE svg PUBLIC "-//W3C//DTD SVG 20010904//EN"
 "http://www.w3.org/TR/2001/REC-SVG-20010904/DTD/svg10.dtd">
<svg version="1.0" xmlns="http://www.w3.org/2000/svg"
 width="1280.000000pt" height="851.000000pt" viewBox="0 0 1280.000000 851.000000"
 preserveAspectRatio="xMidYMid meet">
<metadata>
Created by potrace 1.15, written by Peter Selinger 2001-2017
</metadata>
<g transform="translate(0.000000,851.000000) scale(0.100000,-0.100000)"
fill="#000000" stroke="none">
<path d="M485 6610 c-3 -5 -28 -10 -54 -10 -31 0 -53 -5 -61 -15 -16 -19 -73
-19 -172 0 -78 15 -161 11 -186 -8 -9 -7 -12 -678 -12 -3293 l0 -3284 5499 0
5500 0 15 22 c10 14 16 44 16 83 0 85 32 149 77 153 17 2 37 10 43 18 7 8 21
14 32 14 28 0 34 28 15 79 -9 24 -14 48 -11 53 3 4 38 8 77 8 78 0 127 18 180
68 40 38 48 80 31 153 -14 60 -18 66 -136 181 -122 119 -190 168 -238 168 -33
0 -47 10 -59 43 -7 17 -18 27 -30 27 -11 0 -41 18 -66 40 -25 22 -50 40 -55
40 -14 0 -40 60 -40 92 0 36 32 50 94 42 51 -7 83 7 97 43 14 38 -8 64 -85
102 -37 18 -73 43 -82 56 -8 12 -39 39 -69 59 -47 31 -60 35 -94 30 -35 -6
-42 -2 -89 39 -41 37 -61 47 -99 51 -64 8 -102 19 -203 56 -47 18 -116 36
-155 41 -38 5 -99 14 -135 20 -36 5 -81 11 -100 12 -19 2 -42 7 -50 12 -8 6
-24 15 -36 20 -12 6 -43 35 -69 65 -68 78 -214 209 -250 224 -16 8 -61 16 -99
20 l-68 7 -55 -42 c-47 -35 -59 -40 -86 -34 -18 3 -61 10 -97 13 l-65 7 -5 45
c-3 25 -9 50 -13 57 -4 6 -42 26 -84 43 -70 29 -84 32 -144 26 -90 -8 -161 7
-214 45 -53 38 -72 35 -156 -22 -32 -21 -63 -39 -68 -39 -6 0 -18 11 -27 25
-9 13 -25 27 -37 31 -39 12 -75 46 -93 86 -25 56 -66 82 -130 83 -45 0 -58 5
-84 30 -28 26 -39 30 -105 33 -42 3 -79 9 -85 16 -7 9 -5 30 4 67 17 63 8 87
-34 96 -52 10 -54 21 -22 150 61 242 72 300 72 359 0 34 6 77 14 95 7 19 12
39 9 45 -2 7 3 41 11 76 8 35 20 111 26 170 11 105 11 106 -14 157 l-26 51
-63 0 c-34 0 -82 -5 -106 -11 -33 -7 -56 -6 -96 6 -29 8 -66 15 -82 15 -25 0
-36 9 -66 53 -39 57 -44 86 -26 152 11 40 71 104 230 245 34 30 83 86 108 124
25 38 51 76 56 83 7 10 5 18 -10 29 -23 17 -73 15 -148 -7 -35 -10 -52 -10
-65 -3 -25 16 -27 76 -3 115 12 19 21 46 21 62 0 29 4 28 -95 31 -48 1 -50 2
-53 32 -3 26 -10 35 -43 49 -21 10 -44 24 -50 32 -6 7 -22 13 -36 13 -17 0
-45 21 -92 68 -95 94 -105 112 -97 172 5 40 3 52 -12 67 -30 28 -38 160 -17
265 10 45 14 98 11 117 -3 20 -2 59 2 87 8 47 3 113 -15 224 l-8 45 -49 0
c-38 1 -52 5 -67 24 -23 28 -24 54 -4 71 17 14 19 50 5 102 -9 31 -17 39 -55
52 -32 10 -65 13 -115 9 -74 -6 -167 14 -190 42 -6 8 -41 16 -78 19 -135 12
-239 28 -302 45 -135 38 -200 51 -254 51 -31 0 -72 7 -92 15 -19 8 -71 21
-115 30 -44 8 -88 19 -98 24 -31 17 -294 3 -349 -18 l-47 -19 -45 24 c-54 28
-107 30 -196 8 -53 -14 -70 -14 -92 -4 -26 11 -92 24 -192 37 -25 3 -114 5
-199 4 -136 0 -159 -3 -194 -21 -34 -18 -50 -20 -106 -14 -36 4 -79 13 -96 20
-35 14 -158 12 -220 -5 -22 -6 -62 -11 -88 -11 -26 0 -58 -7 -70 -15 -12 -8
-49 -17 -82 -20 -33 -4 -98 -18 -144 -32 -97 -30 -136 -33 -154 -10 -16 21
-103 67 -127 67 -11 0 -32 -19 -51 -46 -31 -46 -32 -46 -78 -41 -103 13 -171
37 -224 80 -26 20 -42 22 -163 25 l-134 4 -21 29 c-19 27 -25 29 -83 29 -49 0
-67 4 -80 19 -13 15 -37 19 -134 24 -115 6 -215 26 -235 46 -6 6 -47 11 -92
11 -44 0 -96 5 -115 10 -19 6 -97 12 -173 15 -76 3 -147 10 -158 15 -10 6 -43
11 -71 12 -53 1 -93 -15 -157 -64 -34 -26 -93 -23 -128 5 -15 13 -53 34 -83
47 -50 22 -68 24 -187 23 -116 -1 -136 -4 -161 -22 -34 -24 -95 -19 -127 10
-39 34 -125 53 -140 29z"/>
</g>
</svg>
