<?xml version="1.0" standalone="no"?>
<!DOCTYPE svg PUBLIC "-//W3C//DTD SVG 20010904//EN"
 "http://www.w3.org/TR/2001/REC-SVG-20010904/DTD/svg10.dtd">
<svg version="1.0" xmlns="http://www.w3.org/2000/svg"
 width="1280.000000pt" height="967.000000pt" viewBox="0 0 1280.000000 967.000000"
 preserveAspectRatio="xMidYMid meet">
<metadata>
Created by potrace 1.15, written by Peter Selinger 2001-2017
</metadata>
<g transform="translate(0.000000,967.000000) scale(0.100000,-0.100000)"
fill="#000000" stroke="none">
<path d="M12755 8057 c-8 -13 -27 -29 -41 -36 -15 -6 -46 -27 -69 -46 -23 -19
-47 -35 -52 -35 -6 0 -25 -16 -42 -35 -17 -19 -35 -35 -40 -35 -6 0 -15 -9
-21 -19 -5 -11 -22 -26 -37 -33 -57 -29 -79 -44 -125 -85 -26 -24 -52 -43 -57
-43 -5 0 -16 -6 -23 -12 -7 -7 -26 -20 -43 -28 -39 -19 -44 -23 -145 -120
l-85 -81 -45 6 c-107 14 -134 11 -145 -12 -5 -13 -16 -23 -23 -23 -16 0 -133
-63 -174 -93 -18 -14 -34 -18 -52 -13 -26 6 -62 -6 -81 -29 -5 -6 -29 -17 -52
-24 -24 -6 -43 -16 -43 -21 0 -6 -13 -10 -29 -10 -47 0 -79 -17 -103 -54 -13
-20 -38 -43 -55 -53 -18 -10 -33 -21 -33 -24 0 -4 -13 -12 -29 -17 -16 -6 -41
-20 -55 -33 -14 -13 -33 -24 -40 -25 -23 -3 -64 -37 -75 -62 -8 -17 -16 -21
-34 -16 -28 6 -103 -26 -142 -62 -14 -13 -32 -24 -39 -24 -23 0 -36 -24 -36
-65 0 -31 -7 -48 -30 -73 -33 -36 -38 -72 -16 -112 17 -30 5 -60 -24 -60 -11
0 -20 -4 -20 -10 0 -5 -9 -10 -21 -10 -12 0 -23 -8 -26 -18 -2 -10 -19 -24
-36 -32 -18 -7 -49 -32 -71 -54 -21 -22 -49 -46 -62 -52 -13 -7 -36 -19 -51
-27 -15 -9 -43 -21 -60 -27 -18 -7 -33 -16 -33 -21 0 -5 -6 -9 -14 -9 -14 0
-78 -48 -126 -94 -14 -13 -40 -27 -58 -31 -18 -4 -45 -13 -60 -21 -15 -8 -35
-14 -45 -14 -23 0 -80 -58 -73 -75 4 -12 -22 -33 -91 -71 -20 -11 -23 -11 -23
6 0 10 -5 22 -11 25 -14 9 -49 -24 -49 -47 0 -10 -10 -22 -23 -27 -13 -5 -31
-21 -40 -34 -27 -42 -66 -76 -93 -83 -13 -3 -30 -14 -37 -23 -6 -9 -24 -22
-39 -28 -16 -7 -28 -17 -28 -23 0 -5 -7 -10 -15 -10 -8 0 -15 -4 -15 -9 0 -5
-8 -12 -17 -15 -23 -8 -133 -111 -133 -125 0 -6 -7 -11 -15 -11 -9 0 -21 -11
-27 -25 -6 -14 -17 -25 -23 -25 -7 0 -18 -7 -25 -15 -7 -8 -23 -15 -36 -15
-12 0 -38 -13 -56 -30 -18 -16 -38 -30 -45 -30 -6 0 -16 -6 -20 -13 -4 -7 -25
-26 -45 -41 -25 -19 -39 -39 -44 -61 -3 -20 -14 -36 -27 -42 -48 -22 -73 -32
-97 -38 -14 -4 -56 -21 -95 -40 -38 -18 -88 -36 -110 -40 -22 -4 -58 -11 -80
-15 -38 -8 -71 -15 -122 -26 -12 -2 -25 -13 -28 -24 -5 -15 -15 -20 -40 -20
-19 0 -55 -11 -81 -25 -26 -14 -57 -25 -69 -25 -14 0 -26 -9 -33 -25 -12 -27
-48 -45 -88 -45 -13 0 -24 -4 -24 -10 0 -5 -14 -10 -31 -10 -17 0 -40 -5 -51
-11 -12 -6 -39 -11 -62 -11 -23 1 -51 -6 -63 -14 -12 -7 -31 -14 -41 -14 -10
0 -23 -5 -28 -10 -6 -6 -57 -13 -115 -16 -57 -3 -124 -10 -149 -16 -25 -6 -87
-12 -139 -14 -65 -3 -106 -11 -138 -25 -38 -17 -56 -19 -123 -13 -57 5 -87 3
-109 -7 -17 -8 -31 -17 -31 -21 0 -22 -53 -60 -92 -65 -23 -4 -50 -14 -60 -23
-9 -9 -44 -21 -77 -28 -33 -7 -66 -18 -73 -25 -18 -17 -108 -48 -120 -41 -5 3
-16 0 -24 -7 -9 -7 -38 -12 -66 -12 -28 0 -67 -6 -87 -14 -20 -9 -64 -19 -98
-23 -45 -6 -71 -15 -94 -34 -17 -14 -35 -26 -41 -26 -6 0 -26 -11 -43 -25 -31
-23 -41 -49 -50 -138 -2 -21 3 -16 -107 -101 -53 -41 -88 -75 -88 -86 0 -9 -7
-23 -15 -30 -8 -7 -15 -19 -15 -26 0 -8 -5 -14 -10 -14 -9 0 -8 -20 7 -72 3
-14 -2 -18 -20 -18 -31 0 -61 -58 -72 -135 -6 -42 -34 -106 -54 -125 -11 -9
-31 -44 -52 -88 -15 -32 -20 -64 -21 -132 -1 -50 -5 -93 -10 -96 -4 -3 -8 -14
-8 -25 0 -11 -11 -31 -24 -44 -22 -22 -24 -28 -14 -57 6 -18 17 -40 25 -49 11
-13 37 -207 30 -229 -3 -8 46 -80 54 -80 11 0 0 -170 -13 -192 -7 -13 -12 -26
-13 -30 0 -3 -3 -9 -7 -13 -4 -4 -5 -19 -2 -34 4 -19 -1 -34 -20 -54 -14 -16
-26 -36 -26 -46 0 -10 -6 -24 -14 -30 -7 -6 -16 -29 -20 -50 -3 -21 -13 -44
-21 -51 -8 -7 -15 -23 -15 -36 0 -13 -11 -34 -24 -47 -13 -13 -26 -32 -27 -42
-3 -11 -34 -35 -77 -58 -76 -41 -182 -138 -182 -166 0 -9 -16 -29 -35 -44 -19
-15 -35 -36 -35 -46 0 -10 -18 -34 -41 -52 -22 -19 -55 -48 -73 -65 -18 -18
-47 -35 -64 -39 -25 -5 -32 -12 -32 -31 0 -18 -7 -25 -27 -30 -35 -8 -136 -55
-144 -67 -6 -9 -74 -29 -99 -29 -8 0 -28 2 -44 5 -16 2 -49 0 -75 -5 -25 -6
-98 -11 -161 -13 -115 -4 -166 -11 -185 -25 -17 -14 -250 -21 -629 -20 -104 0
-194 -4 -200 -9 -10 -8 -100 -21 -181 -26 -45 -3 -105 -16 -110 -25 -3 -4 -60
-6 -127 -3 l-123 5 -42 -40 c-24 -22 -57 -43 -74 -47 -22 -5 -35 -16 -42 -34
-9 -26 -52 -61 -107 -88 -14 -7 -33 -17 -42 -23 -43 -25 -54 -31 -68 -37 -8
-4 -17 -9 -20 -13 -17 -21 -80 -60 -97 -60 -12 0 -37 -16 -57 -36 -35 -35 -44
-58 -27 -68 11 -7 22 -76 15 -101 -5 -20 -118 -96 -161 -109 -13 -4 -23 -13
-23 -20 0 -7 -13 -28 -30 -46 -16 -18 -30 -38 -30 -42 0 -5 -13 -23 -30 -41
-16 -18 -30 -35 -30 -38 0 -4 -13 -22 -30 -40 -16 -19 -30 -37 -30 -41 0 -4
-13 -15 -29 -24 -18 -11 -33 -31 -40 -54 -6 -21 -18 -43 -26 -50 -8 -7 -15
-16 -15 -21 0 -10 -45 -59 -54 -59 -11 0 -36 -27 -36 -39 0 -5 -11 -18 -25
-29 -14 -11 -25 -25 -25 -31 0 -17 -30 -60 -72 -104 -42 -42 -44 -51 -24 -93
23 -45 39 -88 38 -96 -1 -5 2532 -8 5628 -8 l5630 0 0 4040 c0 3556 -2 4040
-15 4040 -8 0 -21 -11 -30 -23z"/>
</g>
</svg>
