<?xml version="1.0" standalone="no"?>
<!DOCTYPE svg PUBLIC "-//W3C//DTD SVG 20010904//EN"
 "http://www.w3.org/TR/2001/REC-SVG-20010904/DTD/svg10.dtd">
<svg version="1.0" xmlns="http://www.w3.org/2000/svg"
 width="1280.000000pt" height="773.000000pt" viewBox="0 0 1280.000000 773.000000"
 preserveAspectRatio="xMidYMid meet">
<metadata>
Created by potrace 1.15, written by Peter Selinger 2001-2017
</metadata>
<g transform="translate(0.000000,773.000000) scale(0.100000,-0.100000)"
fill="#000000" stroke="none">
<path d="M385 7719 c-465 -68 -507 -388 -123 -926 428 -599 1382 -1441 2668
-2356 l265 -189 -12 -116 c-75 -722 149 -1459 628 -2063 106 -134 354 -381
494 -493 669 -532 1522 -796 2410 -747 388 22 558 43 793 101 203 50 456 141
614 221 l62 31 -29 13 c-35 16 -18 20 20 5 23 -9 37 -5 97 28 67 37 69 40 43
46 -15 4 -25 10 -22 13 8 8 34 -3 317 -132 1354 -620 2471 -1005 3260 -1126
188 -29 496 -32 608 -6 202 45 305 141 319 295 42 467 -858 1435 -2430 2610
-161 120 -354 262 -429 315 -75 54 -139 101 -141 105 -3 4 1 41 8 82 8 41 19
155 26 253 15 205 3 441 -31 640 -228 1319 -1350 2338 -2800 2542 -224 32
-431 39 -752 27 -304 -12 -467 -30 -655 -71 -93 -20 -233 -59 -233 -65 0 -2
14 -3 31 -4 17 0 33 -2 35 -5 2 -2 -49 -23 -114 -47 -505 -187 -890 -423
-1225 -750 -277 -270 -493 -563 -627 -852 -25 -53 -47 -97 -51 -98 -12 -1
-331 322 -404 410 -302 364 -323 589 -59 645 38 8 98 15 134 15 174 0 470 -59
787 -156 l111 -35 154 154 c84 85 172 170 195 189 l43 35 -98 43 c-948 417
-1718 689 -2301 811 -310 65 -605 86 -762 55 -106 -22 -155 -43 -209 -92 -57
-52 -80 -103 -80 -184 -1 -233 201 -546 639 -993 390 -397 907 -835 1503
-1272 111 -81 178 -137 178 -147 0 -10 -2 -18 -5 -18 -10 0 -596 442 -769 579
-855 684 -1403 1248 -1596 1646 -107 219 -105 367 6 465 87 76 201 104 424
104 595 -1 1575 -306 3002 -934 l97 -43 66 48 c36 26 65 48 63 49 -2 2 -106
50 -233 109 -1339 614 -2423 991 -3205 1114 -86 13 -172 18 -340 18 -203 0
-232 -2 -298 -22 -216 -65 -299 -194 -257 -398 90 -431 731 -1137 1838 -2022
205 -165 790 -604 1009 -758 86 -60 155 -112 153 -114 -5 -4 -112 72 -410 288
-1319 957 -2261 1846 -2535 2391 -70 140 -93 215 -94 315 -1 72 3 99 20 135
41 88 129 150 264 187 101 28 466 25 655 -5 772 -123 1899 -518 3239 -1136
142 -65 213 -93 220 -86 5 5 8 11 5 13 -24 19 -730 336 -1051 472 -1422 605
-2592 921 -3123 844z m9555 -4513 c1203 -862 2144 -1712 2522 -2276 295 -442
270 -723 -72 -815 -86 -23 -363 -31 -514 -16 -537 57 -1288 277 -2229 652
-393 157 -1066 450 -1202 523 -77 42 -37 25 175 -72 776 -356 1614 -681 2217
-861 532 -158 925 -232 1243 -233 352 -1 530 94 555 297 22 172 -113 448 -378
774 -436 535 -1332 1314 -2329 2025 -76 54 -138 100 -138 103 0 6 12 -2 150
-101z m9 -203 c800 -603 1419 -1162 1763 -1594 388 -488 419 -804 89 -905
-392 -119 -1325 97 -2549 592 -168 67 -740 312 -751 321 -3 2 0 8 7 15 8 8 74
-17 256 -96 913 -398 1757 -675 2316 -761 168 -26 428 -31 530 -11 99 20 172
52 218 98 58 56 67 82 67 193 -1 89 -4 108 -33 179 -135 330 -544 791 -1197
1352 -207 177 -502 414 -737 589 -115 86 -187 147 -187 158 -1 9 2 17 5 17 4
0 95 -66 203 -147z m-241 -565 c254 -278 362 -465 350 -600 -8 -75 -61 -133
-147 -159 -59 -17 -220 -22 -328 -10 -155 18 -459 87 -601 136 -9 3 18 40 76
103 167 182 291 352 412 565 l72 127 26 -19 c15 -10 78 -75 140 -143z"/>
</g>
</svg>
