<?xml version="1.0" standalone="no"?>
<!DOCTYPE svg PUBLIC "-//W3C//DTD SVG 20010904//EN"
 "http://www.w3.org/TR/2001/REC-SVG-20010904/DTD/svg10.dtd">
<svg version="1.0" xmlns="http://www.w3.org/2000/svg"
 width="1280.000000pt" height="1217.000000pt" viewBox="0 0 1280.000000 1217.000000"
 preserveAspectRatio="xMidYMid meet">
<metadata>
Created by potrace 1.15, written by Peter Selinger 2001-2017
</metadata>
<g transform="translate(0.000000,1217.000000) scale(0.100000,-0.100000)"
fill="#000000" stroke="none">
<path d="M5891 10707 c-278 -798 -632 -1818 -787 -2266 -156 -447 -285 -815
-287 -817 -2 -2 -1082 -26 -2401 -53 -1319 -27 -2399 -51 -2402 -53 -2 -3 225
-177 503 -389 279 -211 1068 -809 1753 -1328 685 -519 1318 -998 1407 -1065
105 -79 160 -126 158 -136 -6 -23 -590 -1958 -1166 -3859 -121 -398 -218 -726
-216 -728 3 -2 892 613 1976 1367 l1971 1372 1971 -1372 c1084 -754 1974
-1369 1976 -1366 2 2 -14 62 -35 133 -22 70 -127 414 -232 763 -106 349 -290
959 -410 1355 -371 1226 -701 2319 -705 2335 -2 10 56 60 168 144 663 498
3656 2771 3653 2774 -3 2 -1083 26 -2402 53 -1319 27 -2399 51 -2401 53 -4 4
-76 211 -949 2723 -346 997 -631 1813 -634 1813 -3 0 -232 -654 -509 -1453z"/>
</g>
</svg>
