<?xml version="1.0" standalone="no"?>
<!DOCTYPE svg PUBLIC "-//W3C//DTD SVG 20010904//EN"
 "http://www.w3.org/TR/2001/REC-SVG-20010904/DTD/svg10.dtd">
<svg version="1.0" xmlns="http://www.w3.org/2000/svg"
 width="975.000000pt" height="1280.000000pt" viewBox="0 0 975.000000 1280.000000"
 preserveAspectRatio="xMidYMid meet">
<metadata>
Created by potrace 1.15, written by Peter Selinger 2001-2017
</metadata>
<g transform="translate(0.000000,1280.000000) scale(0.100000,-0.100000)"
fill="#000000" stroke="none">
<path d="M5082 12769 c-11 -38 -204 -643 -207 -647 -2 -2 -92 31 -439 162
-125 48 -230 86 -232 84 -1 -2 85 -135 192 -296 106 -161 194 -296 194 -300 0
-4 -138 -88 -306 -187 -291 -172 -303 -180 -272 -187 18 -4 177 -19 353 -34
176 -14 322 -28 325 -31 2 -2 -17 -159 -44 -349 -26 -191 -45 -348 -43 -350 2
-3 114 111 248 252 l243 256 96 -99 c53 -54 166 -172 251 -262 l155 -163 -49
356 c-27 197 -48 359 -46 360 2 2 148 16 324 30 176 15 335 30 354 34 32 7 21
14 -268 186 -166 98 -303 182 -306 186 -3 4 83 140 190 301 106 161 192 295
191 297 -2 1 -97 -33 -212 -76 -115 -44 -263 -100 -329 -125 -66 -25 -123 -43
-126 -39 -4 4 -53 151 -109 327 -56 176 -106 327 -110 334 -6 11 -11 6 -18
-20z"/>
<path d="M8525 9210 c-60 -187 -113 -340 -118 -340 -4 0 -126 45 -270 99 -388
147 -399 151 -395 143 2 -4 88 -135 192 -292 104 -157 190 -290 193 -296 2 -6
-131 -91 -297 -189 -165 -98 -302 -181 -305 -185 -2 -3 151 -19 341 -35 190
-16 350 -32 356 -36 8 -5 -2 -106 -36 -354 -27 -190 -46 -348 -45 -350 2 -2
114 113 249 256 l245 259 41 -43 c23 -23 133 -139 245 -257 112 -118 207 -217
211 -218 5 -2 6 2 3 10 -2 7 -25 165 -51 352 -31 231 -43 341 -35 345 5 4 166
20 356 36 190 16 345 31 345 34 -1 3 -138 87 -306 185 -188 111 -303 185 -300
192 3 7 91 141 196 299 105 158 190 288 188 290 -2 1 -55 -17 -118 -41 -364
-139 -538 -204 -546 -204 -5 0 -56 148 -113 328 -57 180 -107 333 -110 340 -4
7 -56 -141 -116 -328z"/>
<path d="M1110 8487 c0 -4 -198 -626 -215 -674 -3 -10 -227 71 -597 215 -43
16 -78 27 -78 24 0 -3 88 -138 196 -300 107 -162 192 -298 187 -302 -4 -5
-138 -85 -298 -180 -160 -94 -294 -176 -300 -181 -5 -6 -2 -9 10 -9 48 -1 688
-60 692 -64 5 -5 -83 -668 -92 -694 -3 -8 -1 -12 4 -10 5 1 116 116 246 253
131 138 242 251 249 252 6 1 119 -113 251 -253 132 -140 241 -250 243 -245 3
8 -83 645 -92 683 -4 19 -19 17 404 53 162 14 299 27 304 28 5 2 -129 85 -298
186 -210 124 -306 187 -302 196 2 7 91 142 195 299 105 157 191 288 191 290 0
2 -24 -5 -52 -16 -304 -117 -603 -228 -613 -228 -7 0 -57 142 -119 338 -99
307 -116 358 -116 339z"/>
<path d="M6600 6138 c-47 -116 -89 -212 -95 -214 -5 -2 -109 -10 -230 -19
-121 -9 -221 -18 -222 -19 -1 -1 76 -68 172 -149 96 -82 175 -153 175 -160 0
-7 -25 -108 -54 -225 -43 -170 -51 -212 -38 -207 8 3 98 57 198 120 l183 114
193 -120 c106 -66 194 -116 196 -111 1 5 -20 100 -48 210 -27 111 -50 209 -49
219 0 11 72 78 174 163 95 80 173 146 172 147 -1 1 -103 9 -227 18 -124 9
-228 20 -232 24 -4 3 -44 96 -89 206 -44 110 -84 203 -87 207 -4 4 -45 -88
-92 -204z"/>
<path d="M4991 1858 c-57 -177 -107 -332 -112 -345 -8 -22 -9 -22 -46 -6 -83
35 -633 241 -633 237 0 -2 86 -133 191 -290 104 -157 193 -292 195 -299 4 -9
-84 -66 -268 -175 -378 -225 -346 -205 -323 -208 11 -1 170 -16 354 -32 183
-16 336 -31 339 -35 3 -3 -16 -161 -42 -351 -26 -190 -46 -347 -44 -349 2 -2
69 64 148 148 79 84 189 200 245 258 l102 106 244 -258 c134 -142 245 -251
247 -244 2 8 -18 165 -43 350 -26 185 -45 339 -42 341 3 3 155 18 338 34 184
16 343 31 354 32 13 2 -89 68 -280 182 -165 98 -304 182 -308 186 -4 4 80 140
187 303 108 163 196 298 196 300 0 4 -95 -31 -518 -193 -101 -38 -155 -54
-157 -47 -3 7 -52 160 -110 341 -58 181 -106 331 -108 332 -2 2 -49 -141 -106
-318z"/>
</g>
</svg>
