<?xml version="1.0" encoding="utf-8"?>
<!-- Generator: Adobe Illustrator 23.1.0, SVG Export Plug-In . SVG Version: 6.00 Build 0)  -->
<svg version="1.1" id="Слой_1" xmlns="http://www.w3.org/2000/svg" xmlns:xlink="http://www.w3.org/1999/xlink" x="0px" y="0px"
	 viewBox="0 0 322.8 322.8" style="enable-background:new 0 0 322.8 322.8;" xml:space="preserve">
<style type="text/css">
	.st0{fill:#694A1C;}
	.st1{fill:#563F17;}
	.st2{fill:#A9D056;}
	.st3{fill:#93B93E;}
	.st4{fill:#7D9F3E;}
	.st5{fill:#E97025;}
	.st6{fill:#CA5828;}
	.st7{fill:#9E4623;}
</style>
<g>
	<path class="st0" d="M127.9,253.1c0.1,0,0.2,0,0.3,0C128.1,253.1,128,253.1,127.9,253.1L127.9,253.1z"/>
	<path class="st0" d="M161.5,224.1c-13.4,0-25.8,1-36.1,2.7l-3.6,0.4l0.1,0.2c0.4-0.1,0.8-0.1,1.2-0.2l5.3,26
		c9.7,1.4,21,2.2,33.1,2.2c35.7,0,64.6-7,64.6-15.6C226.1,231.1,197.2,224.1,161.5,224.1z"/>
	<path class="st1" d="M128.4,253.1L128.4,253.1c-0.1,0-0.2,0-0.3,0C128.3,253.1,128.3,253.1,128.4,253.1z"/>
	<path class="st1" d="M96.9,239.7c0,5.6,12.7,10.6,31,13.3l-6.1-25.7C105.5,230.2,96.9,234.5,96.9,239.7z"/>
	<path class="st1" d="M121.8,227.4l6.1,25.7c0.1,0,0.2,0,0.3,0c0.1,0,0.2,0,0.3,0l-5.3-26C122.7,227.2,122.3,227.3,121.8,227.4z"/>
</g>
<g>
	<path class="st2" d="M90.6,99.3c-0.1-0.1-0.1-0.2-0.2-0.3C90.4,99.1,90.5,99.2,90.6,99.3z"/>
	<path class="st2" d="M90,98.4c-0.1-0.1-0.1-0.2-0.2-0.4C89.9,98.1,90,98.3,90,98.4z"/>
	<path class="st2" d="M89.6,97.5c-0.1-0.1-0.1-0.2-0.2-0.4C89.4,97.2,89.5,97.4,89.6,97.5z"/>
	<path class="st2" d="M89.1,96.6c-0.1-0.1-0.1-0.3-0.2-0.4C89,96.3,89.1,96.4,89.1,96.6z"/>
	<path class="st2" d="M92.4,101.9c-0.1-0.1-0.1-0.2-0.2-0.3C92.2,101.7,92.3,101.8,92.4,101.9z"/>
	<path class="st2" d="M93,102.8c-0.1-0.1-0.1-0.2-0.2-0.3C92.9,102.6,92.9,102.7,93,102.8z"/>
	<path class="st2" d="M87.3,86.7c0-0.2,0.1-0.4,0.1-0.6C87.4,86.3,87.4,86.5,87.3,86.7z"/>
	<path class="st2" d="M91.1,100.2c-0.1-0.1-0.1-0.2-0.2-0.3C91,100,91.1,100.1,91.1,100.2z"/>
	<path class="st2" d="M87.3,89.6c0-0.2,0-0.4,0-0.6C87.2,89.2,87.2,89.4,87.3,89.6z"/>
	<path class="st2" d="M93.7,103.7c-0.1-0.1-0.1-0.2-0.2-0.3C93.6,103.5,93.6,103.6,93.7,103.7z"/>
	<path class="st2" d="M88.7,95.6c-0.1-0.1-0.1-0.3-0.2-0.4C88.6,95.4,88.7,95.5,88.7,95.6z"/>
	<path class="st2" d="M87.3,87.7c0-0.2,0-0.4,0.1-0.6C87.3,87.3,87.3,87.5,87.3,87.7z"/>
	<path class="st2" d="M87.5,91.3c-0.1-0.5-0.1-1-0.2-1.5C87.3,90.3,87.4,90.8,87.5,91.3z"/>
	<path class="st2" d="M87.2,88.6c0-0.2,0-0.4,0-0.6C87.2,88.2,87.2,88.4,87.2,88.6z"/>
	<path class="st2" d="M88.1,93.8c0-0.1-0.1-0.3-0.1-0.4C88,93.5,88,93.7,88.1,93.8z"/>
	<path class="st2" d="M88.4,94.7c0-0.1-0.1-0.3-0.1-0.4C88.3,94.5,88.3,94.6,88.4,94.7z"/>
	<path class="st2" d="M87.8,92.9c0-0.1-0.1-0.3-0.1-0.4C87.7,92.6,87.8,92.7,87.8,92.9z"/>
	<path class="st2" d="M87.6,92c0-0.2-0.1-0.3-0.1-0.5C87.5,91.7,87.5,91.8,87.6,92z"/>
	<path class="st2" d="M91.7,101.1c-0.1-0.1-0.1-0.2-0.2-0.3C91.6,100.9,91.7,101,91.7,101.1z"/>
	<path class="st2" d="M115.9,124.1c-0.2-0.1-0.3-0.3-0.5-0.4C115.6,123.8,115.7,123.9,115.9,124.1z"/>
	<path class="st2" d="M119.3,127.1c-0.2-0.2-0.4-0.3-0.5-0.5C119,126.8,119.1,127,119.3,127.1z"/>
	<path class="st2" d="M117.6,125.6c-0.2-0.2-0.3-0.3-0.5-0.5C117.3,125.3,117.5,125.4,117.6,125.6z"/>
	<path class="st2" d="M116.8,124.8c-0.2-0.2-0.3-0.3-0.5-0.5C116.4,124.5,116.6,124.7,116.8,124.8z"/>
	<path class="st2" d="M118.5,126.4c-0.2-0.2-0.3-0.3-0.5-0.5C118.1,126.1,118.3,126.2,118.5,126.4z"/>
	<path class="st2" d="M123.1,131c-0.2-0.2-0.4-0.4-0.6-0.6C122.7,130.6,122.9,130.8,123.1,131z"/>
	<path class="st2" d="M122.4,130.2c-0.2-0.2-0.4-0.4-0.6-0.6C122,129.8,122.2,130,122.4,130.2z"/>
	<path class="st2" d="M120.9,128.7c-0.2-0.2-0.4-0.4-0.5-0.5C120.5,128.3,120.7,128.5,120.9,128.7z"/>
	<path class="st2" d="M120.1,127.9c-0.2-0.2-0.4-0.3-0.5-0.5C119.8,127.6,119.9,127.7,120.1,127.9z"/>
	<path class="st2" d="M95.2,105.4c-0.1-0.1-0.1-0.1-0.2-0.2C95.1,105.3,95.1,105.4,95.2,105.4z"/>
	<path class="st2" d="M96.8,107.1c-0.1-0.1-0.1-0.1-0.2-0.2C96.7,107,96.7,107.1,96.8,107.1z"/>
	<path class="st2" d="M97.6,108l-0.1-0.1C97.5,107.9,97.5,107.9,97.6,108z"/>
	<path class="st2" d="M96,106.3c-0.1-0.1-0.1-0.1-0.2-0.2C95.8,106.2,95.9,106.2,96,106.3z"/>
	<path class="st2" d="M94.4,104.6c-0.1-0.1-0.1-0.2-0.2-0.2C94.3,104.4,94.4,104.5,94.4,104.6z"/>
	<path class="st2" d="M115,123.3c-0.2-0.1-0.3-0.3-0.5-0.4C114.7,123,114.8,123.2,115,123.3z"/>
	<path class="st2" d="M114.1,122.5c-0.1-0.1-0.3-0.2-0.4-0.3C113.8,122.3,113.9,122.4,114.1,122.5z"/>
	<path class="st2" d="M113.1,121.7c-0.1-0.1-0.2-0.2-0.3-0.2C112.9,121.5,113,121.6,113.1,121.7z"/>
	<path class="st2" d="M98.4,108.8L98.4,108.8L98.4,108.8z"/>
	<path class="st2" d="M88.7,81.7c0.1-0.2,0.2-0.4,0.3-0.6C88.9,81.3,88.8,81.5,88.7,81.7z"/>
	<path class="st2" d="M89.2,80.7c0.1-0.2,0.2-0.4,0.3-0.6C89.4,80.3,89.3,80.5,89.2,80.7z"/>
	<path class="st2" d="M88.3,82.7c0.1-0.2,0.2-0.4,0.2-0.6C88.5,82.3,88.4,82.5,88.3,82.7z"/>
	<path class="st2" d="M87.7,84.7c0-0.2,0.1-0.4,0.2-0.6C87.8,84.3,87.7,84.5,87.7,84.7z"/>
	<path class="st2" d="M88,83.7c0.1-0.2,0.1-0.4,0.2-0.6C88.1,83.3,88,83.5,88,83.7z"/>
	<path class="st2" d="M123.2,131.1c0.7,0.7,1.3,1.5,1.8,2.2c5.9,7.8,10.2,16.2,13.1,22.6c-2.9-6.4-7.2-14.8-13.1-22.6
		C124.5,132.5,123.9,131.8,123.2,131.1z"/>
	<path class="st2" d="M121.1,128.9c0.2,0.2,0.4,0.4,0.5,0.6C121.5,129.2,121.3,129,121.1,128.9z"/>
	<path class="st2" d="M105.5,83.7c1.5-3.2,5.3-4.5,8.5-3c0.5,0.2,12.1,5.8,23.6,18.7c3.4,3.8,7,8.6,10.4,14.4V74
		c0-3.5,2.9-6.4,6.4-6.4s6.4,2.9,6.4,6.4v39.7c3.3-5.7,7-10.5,10.4-14.4c11.5-12.9,23.1-18.5,23.6-18.7c3.2-1.5,7-0.1,8.5,3.1
		c1.5,3.2,0.1,7-3,8.5c-0.1,0.1-10.1,4.9-19.8,16.1c-11.5,13.1-17.9,29-19.3,47.5c3,0.3,6,0.8,8.9,1.6c2.8-6.6,7.4-15.6,13.7-24
		c11.8-15.6,50.2-33.2,33.8-56c-16.5-22.8-43.6,5.2-43.6,5.2c1.1-31.3-19.3-32.5-19.3-32.5s-20.4,1.2-19.3,32.5
		c0,0-27.2-28-43.6-5.2c-0.6,0.9-1.2,1.7-1.6,2.6c5.1,2.4,10.4,5.1,15.4,8C104.7,86.5,104.8,85,105.5,83.7z"/>
	<path class="st2" d="M87.5,85.7c0-0.2,0.1-0.4,0.1-0.6C87.6,85.3,87.5,85.5,87.5,85.7z"/>
	<path class="st3" d="M98.4,108.8c-0.3-0.3-0.5-0.5-0.8-0.8C97.8,108.2,98.1,108.5,98.4,108.8z"/>
	<path class="st3" d="M87.2,88c0-0.1,0-0.2,0-0.3C87.2,87.8,87.2,87.9,87.2,88z"/>
	<path class="st3" d="M120.9,128.7c0.1,0.1,0.1,0.1,0.2,0.2C121,128.8,121,128.7,120.9,128.7z"/>
	<path class="st3" d="M112.8,121.5c-4.8-4-10-8.2-14.4-12.6C102.9,113.2,108.1,117.4,112.8,121.5z"/>
	<path class="st3" d="M113.7,122.2c-0.2-0.2-0.4-0.3-0.6-0.5C113.3,121.8,113.5,122,113.7,122.2z"/>
	<path class="st3" d="M87.4,86.1c0-0.1,0-0.2,0.1-0.4C87.5,85.8,87.4,86,87.4,86.1z"/>
	<path class="st3" d="M97.5,107.9c-0.2-0.2-0.5-0.5-0.7-0.7C97,107.4,97.2,107.6,97.5,107.9z"/>
	<path class="st3" d="M87.3,87.1c0-0.1,0-0.2,0-0.4C87.3,86.8,87.3,86.9,87.3,87.1z"/>
	<path class="st3" d="M94.2,104.3c-0.2-0.2-0.3-0.4-0.5-0.6C93.9,103.9,94.1,104.1,94.2,104.3z"/>
	<path class="st3" d="M95,105.2c-0.2-0.2-0.4-0.4-0.6-0.6C94.6,104.8,94.8,105,95,105.2z"/>
	<path class="st3" d="M95.8,106.1c-0.2-0.2-0.4-0.4-0.6-0.7C95.4,105.6,95.6,105.9,95.8,106.1z"/>
	<path class="st3" d="M93.5,103.4c-0.2-0.2-0.3-0.4-0.5-0.6C93.2,103,93.3,103.2,93.5,103.4z"/>
	<path class="st3" d="M96.6,107c-0.2-0.2-0.4-0.5-0.6-0.7C96.2,106.5,96.4,106.7,96.6,107z"/>
	<path class="st3" d="M120.4,128.1c-0.1-0.1-0.2-0.2-0.2-0.2C120.2,128,120.3,128,120.4,128.1z"/>
	<path class="st3" d="M118.8,126.6c-0.1-0.1-0.2-0.2-0.3-0.3C118.6,126.5,118.7,126.5,118.8,126.6z"/>
	<path class="st3" d="M119.6,127.4c-0.1-0.1-0.2-0.2-0.3-0.2C119.4,127.2,119.5,127.3,119.6,127.4z"/>
	<path class="st3" d="M114.5,122.9c-0.2-0.1-0.3-0.3-0.5-0.4C114.2,122.6,114.4,122.8,114.5,122.9z"/>
	<path class="st3" d="M122.5,130.3l-0.1-0.1L122.5,130.3z"/>
	<path class="st3" d="M123.2,131.1C123.2,131,123.2,131,123.2,131.1C123.2,131,123.2,131,123.2,131.1z"/>
	<path class="st3" d="M121.8,129.6c-0.1-0.1-0.1-0.1-0.2-0.2C121.7,129.5,121.8,129.5,121.8,129.6z"/>
	<path class="st3" d="M138.1,155.9c0.3,0.7,0.6,1.3,0.8,1.9l0,0C138.7,157.2,138.4,156.5,138.1,155.9z"/>
	<path class="st3" d="M115.4,123.6c-0.1-0.1-0.3-0.2-0.4-0.4C115.1,123.4,115.3,123.5,115.4,123.6z"/>
	<path class="st3" d="M117.1,125.1c-0.1-0.1-0.2-0.2-0.3-0.3C116.9,124.9,117,125,117.1,125.1z"/>
	<path class="st3" d="M116.3,124.4c-0.1-0.1-0.2-0.2-0.4-0.3C116,124.2,116.2,124.3,116.3,124.4z"/>
	<path class="st3" d="M118,125.9c-0.1-0.1-0.2-0.2-0.3-0.3C117.8,125.7,117.9,125.8,118,125.9z"/>
	<path class="st3" d="M87.2,89c0-0.1,0-0.2,0-0.3C87.2,88.8,87.2,88.9,87.2,89z"/>
	<path class="st3" d="M88.9,96.2c-0.1-0.2-0.2-0.4-0.2-0.5C88.8,95.8,88.9,96,88.9,96.2z"/>
	<path class="st3" d="M88.5,82.1c0.1-0.1,0.1-0.3,0.2-0.4C88.7,81.9,88.6,82,88.5,82.1z"/>
	<path class="st3" d="M89,81.1c0.1-0.1,0.1-0.3,0.2-0.4C89.1,80.8,89.1,81,89,81.1z"/>
	<path class="st3" d="M89.8,98c-0.1-0.2-0.2-0.4-0.3-0.5C89.7,97.7,89.8,97.8,89.8,98z"/>
	<path class="st3" d="M88.6,95.3c-0.1-0.2-0.1-0.4-0.2-0.5C88.4,94.9,88.5,95.1,88.6,95.3z"/>
	<path class="st3" d="M87.5,91.5c0-0.1,0-0.1,0-0.2C87.5,91.4,87.5,91.4,87.5,91.5z"/>
	<path class="st3" d="M89.4,97.1c-0.1-0.2-0.2-0.4-0.3-0.5C89.2,96.7,89.3,96.9,89.4,97.1z"/>
	<path class="st3" d="M87.7,92.4c0-0.2-0.1-0.3-0.1-0.5C87.6,92.1,87.6,92.3,87.7,92.4z"/>
	<path class="st3" d="M89.6,79.9c0,0.1-0.1,0.2-0.1,0.2C89.6,80,89.6,79.9,89.6,79.9L89.6,79.9z"/>
	<path class="st3" d="M87.9,84.1c0-0.1,0.1-0.2,0.1-0.4C87.9,83.9,87.9,84,87.9,84.1z"/>
	<path class="st3" d="M87.6,85.1c0-0.1,0.1-0.2,0.1-0.4C87.7,84.9,87.6,85,87.6,85.1z"/>
	<path class="st3" d="M87.3,89.8c0-0.1,0-0.1,0-0.2C87.3,89.7,87.3,89.8,87.3,89.8z"/>
	<path class="st3" d="M87.9,93.4c0-0.2-0.1-0.3-0.1-0.5C87.8,93.1,87.9,93.2,87.9,93.4z"/>
	<path class="st3" d="M88.2,94.3c-0.1-0.2-0.1-0.3-0.2-0.5C88.1,94,88.2,94.2,88.2,94.3z"/>
	<path class="st3" d="M88.2,83.1c0-0.1,0.1-0.3,0.1-0.4C88.3,82.9,88.2,83,88.2,83.1z"/>
	<path class="st3" d="M91.5,100.8c-0.1-0.2-0.3-0.4-0.4-0.6C91.3,100.4,91.4,100.6,91.5,100.8z"/>
	<path class="st3" d="M90.4,98.9c-0.1-0.2-0.2-0.4-0.3-0.6C90.2,98.6,90.3,98.8,90.4,98.9z"/>
	<path class="st3" d="M90.9,99.8c-0.1-0.2-0.2-0.4-0.4-0.6C90.7,99.5,90.8,99.7,90.9,99.8z"/>
	<path class="st3" d="M92.8,102.5c-0.2-0.2-0.3-0.4-0.4-0.6C92.5,102.1,92.7,102.3,92.8,102.5z"/>
	<path class="st3" d="M92.1,101.6c-0.1-0.2-0.3-0.4-0.4-0.6C91.9,101.3,92,101.5,92.1,101.6z"/>
	<path class="st3" d="M147.6,155.9c-1.3-18.5-7.8-34.6-19.3-47.7c-9.8-11.2-19.7-16-19.8-16.1c-1.8-0.9-3-2.5-3.5-4.3
		c-5-2.9-10.3-5.6-15.4-8c0,0.1-0.1,0.1-0.1,0.2c-0.1,0.2-0.2,0.4-0.3,0.6c-0.1,0.1-0.1,0.3-0.2,0.4c-0.1,0.2-0.2,0.4-0.3,0.6
		c-0.1,0.1-0.1,0.3-0.2,0.4c-0.1,0.2-0.2,0.4-0.2,0.6c0,0.1-0.1,0.3-0.1,0.4c-0.1,0.2-0.1,0.4-0.2,0.6c0,0.1-0.1,0.2-0.1,0.4
		c-0.1,0.2-0.1,0.4-0.2,0.6c0,0.1-0.1,0.2-0.1,0.4s-0.1,0.4-0.1,0.6c0,0.1,0,0.2-0.1,0.4c0,0.2-0.1,0.4-0.1,0.6c0,0.1,0,0.2,0,0.4
		s0,0.4-0.1,0.6c0,0.1,0,0.2,0,0.3c0,0.2,0,0.4,0,0.6c0,0.1,0,0.2,0,0.3c0,0.2,0,0.4,0,0.6c0,0.1,0,0.1,0,0.2c0,0.5,0.1,1,0.2,1.5
		c0,0.1,0,0.1,0,0.2c0,0.2,0.1,0.3,0.1,0.5s0.1,0.3,0.1,0.5c0,0.1,0.1,0.3,0.1,0.4c0,0.2,0.1,0.3,0.1,0.5c0,0.1,0.1,0.3,0.1,0.4
		c0.1,0.2,0.1,0.3,0.2,0.5c0,0.1,0.1,0.3,0.1,0.4c0.1,0.2,0.1,0.4,0.2,0.5s0.1,0.3,0.2,0.4c0.1,0.2,0.1,0.4,0.2,0.5s0.1,0.3,0.2,0.4
		c0.1,0.2,0.2,0.4,0.3,0.5c0.1,0.1,0.1,0.2,0.2,0.4s0.2,0.4,0.3,0.5c0.1,0.1,0.1,0.2,0.2,0.4s0.2,0.4,0.3,0.6
		c0.1,0.1,0.1,0.2,0.2,0.3c0.1,0.2,0.2,0.4,0.4,0.6c0.1,0.1,0.1,0.2,0.2,0.3c0.1,0.2,0.3,0.4,0.4,0.6c0.1,0.1,0.1,0.2,0.2,0.3
		c0.1,0.2,0.3,0.4,0.4,0.6c0.1,0.1,0.1,0.2,0.2,0.3c0.1,0.2,0.3,0.4,0.4,0.6c0.1,0.1,0.1,0.2,0.2,0.3c0.2,0.2,0.3,0.4,0.5,0.6
		c0.1,0.1,0.1,0.2,0.2,0.3c0.2,0.2,0.3,0.4,0.5,0.6c0.1,0.1,0.1,0.2,0.2,0.2c0.2,0.2,0.4,0.4,0.6,0.6c0.1,0.1,0.1,0.1,0.2,0.2
		c0.2,0.2,0.4,0.4,0.6,0.7c0.1,0.1,0.1,0.1,0.2,0.2c0.2,0.2,0.4,0.5,0.6,0.7c0.1,0.1,0.1,0.1,0.2,0.2c0.2,0.2,0.5,0.5,0.7,0.7
		l0.1,0.1c0.3,0.3,0.5,0.5,0.8,0.8c0,0,0,0,0.1,0.1c4.4,4.4,9.6,8.6,14.4,12.6c0.1,0.1,0.2,0.2,0.3,0.2c0.2,0.2,0.4,0.3,0.6,0.5
		c0.1,0.1,0.3,0.2,0.4,0.3c0.2,0.1,0.3,0.3,0.5,0.4c0.2,0.1,0.3,0.3,0.5,0.4c0.1,0.1,0.3,0.2,0.4,0.4c0.2,0.1,0.3,0.3,0.5,0.4
		c0.1,0.1,0.2,0.2,0.4,0.3c0.2,0.2,0.3,0.3,0.5,0.5c0.1,0.1,0.2,0.2,0.3,0.3c0.2,0.2,0.3,0.3,0.5,0.5c0.1,0.1,0.2,0.2,0.3,0.3
		c0.2,0.2,0.4,0.3,0.5,0.5c0.1,0.1,0.2,0.2,0.3,0.3c0.2,0.2,0.4,0.3,0.5,0.5c0.1,0.1,0.2,0.2,0.3,0.2c0.2,0.2,0.4,0.3,0.5,0.5
		c0.1,0.1,0.2,0.2,0.2,0.2c0.2,0.2,0.4,0.4,0.5,0.5s0.1,0.1,0.2,0.2c0.2,0.2,0.4,0.4,0.5,0.6c0.1,0.1,0.1,0.1,0.2,0.2
		c0.2,0.2,0.4,0.4,0.6,0.6l0.1,0.1c0.2,0.2,0.4,0.4,0.6,0.6l0.1,0.1c0.7,0.7,1.3,1.5,1.8,2.2c5.9,7.8,10.2,16.2,13.1,22.6
		c0.3,0.7,0.6,1.3,0.8,1.9C141.8,156.9,144.6,156.3,147.6,155.9z"/>
	<path class="st4" d="M151.3,155.6c1.3-0.1,2.6-0.2,4-0.2c1.9,0,3.8,0.1,5.6,0.3c1.3-18.4,7.8-34.4,19.3-47.5
		c9.8-11.1,19.7-16,19.8-16.1c3.2-1.5,4.5-5.3,3-8.5s-5.3-4.6-8.5-3.1c-0.5,0.2-12.1,5.8-23.6,18.7c-3.4,3.8-7,8.6-10.4,14.4V73.8
		c0-3.5-2.9-6.4-6.4-6.4s-6.4,2.9-6.4,6.4v39.9c-3.3-5.7-7-10.5-10.4-14.4c-11.5-12.9-23.1-18.5-23.6-18.7c-3.2-1.5-7-0.1-8.5,3
		c-0.6,1.3-0.8,2.8-0.4,4.2c6.2,3.6,12,7.7,16.6,11.9C134.7,112.2,148.5,127.9,151.3,155.6z"/>
	<path class="st4" d="M121.6,99.8c-4.5-4.3-10.3-8.3-16.6-11.9c0.4,1.8,1.6,3.4,3.5,4.3c0.1,0,10.1,4.9,19.8,16.1
		c11.5,13.1,18,29.2,19.3,47.7c1.2-0.2,2.4-0.3,3.7-0.4C148.5,127.9,134.7,112.2,121.6,99.8z"/>
	<polygon class="st5" points="102.3,239 102.4,239.2 101.3,232.9 	"/>
	<path class="st5" d="M210.7,206c-7.3-3.4-15.3-6-23.6-7.8c-4-0.9-6.4-4.3-5.4-7.7s5.1-5.4,9.1-4.6c5.7,1.2,11.3,2.8,16.7,4.8
		c-6.6-16.2-20.5-28.8-37.9-33.4c-2.4,5.6-3.6,9.4-3.6,9.4l-6.3-0.6c-1.1,2-3.2,3.3-5.6,3.3l0,0l0,0c-2.4,0-4.5-1.3-5.6-3.3
		l-6.3,0.6l0,0l0,0c0,0-1.1-3.6-3.4-8.9c-8.6,2.6-16.4,7.2-22.7,13.2c0.5,5.6,1,10.9,1.6,15.8c8.8-1.9,19.3-3.5,30.7-4.1
		c4.1-0.2,7.7,2.4,7.9,5.9c0.3,3.5-2.9,6.5-7,6.7c-11.4,0.6-21.7,2.3-30.2,4.2c3.6,30,7,44.4,8.1,48.5c11.2,1.8,23,2.6,27.8,2.6
		c17.7,0,41.3-2.4,52.7-9.8l3.2-20.2c0.5-3,0.7-5.9,0.7-8.8c0-1.9-0.1-3.7-0.3-5.5C211.2,206.2,211,206.1,210.7,206z"/>
	<polygon class="st5" points="142.4,166.7 142.4,166.7 148.7,166.1 148.7,166.1 	"/>
	<path class="st5" d="M160.6,163c0,1.1-0.3,2.2-0.8,3.1l6.3,0.6c0,0,1.2-3.8,3.6-9.4c-2.9-0.8-5.8-1.3-8.9-1.6
		C160.7,158.1,160.6,160.6,160.6,163z"/>
	<path class="st5" d="M142.4,166.7c0,0-1.1-3.6-3.4-8.9l0,0C141.2,163.1,142.4,166.7,142.4,166.7L142.4,166.7z"/>
	<path class="st5" d="M147.9,163c0-2.4-0.1-4.8-0.3-7.1c-3,0.4-5.9,1-8.7,1.9c2.3,5.3,3.4,8.9,3.4,8.9l6.3-0.6
		C148.2,165.2,147.9,164.2,147.9,163z"/>
	<path class="st5" d="M148.7,166.1c1.1,2,3.2,3.3,5.6,3.3l0,0l0,0c2.4,0,4.5-1.3,5.6-3.3l-5.6-0.5L148.7,166.1z"/>
	<path class="st5" d="M160.9,155.7c-1.9-0.2-3.7-0.3-5.6-0.3c-1.3,0-2.7,0.1-4,0.2c0.3,3.2,0.5,6.7,0.5,10.2l-3.1,0.3l0,0l5.6-0.5
		l5.6,0.5c0.5-0.9,0.8-2,0.8-3.1C160.6,160.6,160.7,158.1,160.9,155.7z"/>
	<path class="st5" d="M148.7,166.1l3.1-0.3c0-3.6-0.2-7-0.5-10.2c-1.2,0.1-2.5,0.2-3.7,0.4c0.2,2.3,0.3,4.7,0.3,7.1
		C147.9,164.2,148.2,165.2,148.7,166.1z"/>
	<path class="st6" d="M99.1,218.4l-0.1-0.8c-0.1-1.1-0.2-2.2-0.2-3.2c0.1,1.5,0.2,2.9,0.3,4.4l0.1,1c0.1,0.9,0.2,1.8,0.4,2.7
		l1.7,10.4l-1.9-12.2C99.3,219.9,99.2,219.1,99.1,218.4z"/>
	<path class="st6" d="M99.3,203.8c-0.1,0.4-0.1,0.8-0.2,1.2c0.1-0.5,0.1-0.9,0.2-1.4C99.3,203.7,99.3,203.8,99.3,203.8z"/>
	<path class="st6" d="M102.1,192.6c-0.1,0.2-0.1,0.4-0.2,0.6c-0.1,0.2-0.1,0.4-0.2,0.5C101.9,193.3,102,193,102.1,192.6L102.1,192.6
		z"/>
	<path class="st6" d="M100.2,199.1C100.2,199.2,100.2,199.2,100.2,199.1s0.1-0.2,0.1-0.4C100.2,198.9,100.2,199,100.2,199.1z"/>
	<path class="st6" d="M99.9,200.3c-0.1,0.4-0.2,0.7-0.2,1.1c0.1-0.5,0.2-0.9,0.3-1.4C100,200.1,99.9,200.2,99.9,200.3z"/>
	<path class="st6" d="M101.5,194.3c-0.1,0.4-0.2,0.7-0.4,1.1c0,0.1,0,0.1-0.1,0.2C101.3,195.1,101.4,194.7,101.5,194.3
		C101.5,194.2,101.5,194.3,101.5,194.3z"/>
	<path class="st6" d="M100.8,196.6c-0.1,0.3-0.1,0.5-0.2,0.8c0.1-0.4,0.2-0.7,0.3-1.1C100.9,196.4,100.9,196.5,100.8,196.6z"/>
	<path class="st6" d="M99.5,202.8L99.5,202.8c0,0.2,0,0.3,0,0.4c0.1-0.4,0.1-0.9,0.2-1.3C99.6,202.1,99.5,202.4,99.5,202.8z"/>
	<path class="st6" d="M99.1,205.3L99.1,205.3c-0.1,0.4-0.1,0.8-0.1,1.3l0,0c0,0.4-0.1,0.7-0.1,1.1c0,0.1,0,0.1,0,0.2
		c0,0.4-0.1,0.9-0.1,1.3c0,0.4,0,0.9-0.1,1.3c0,0.4,0,0.9,0,1.3l0,0c0,0.5,0,0.9,0,1.4c0,0.4,0,0.7,0,1.1c0.1,1.1,0.1,2.1,0.2,3.2
		l0.1,0.8c0.1,0.7,0.2,1.5,0.3,2.2l1.9,12.2l1,6.3c2,4.1,13.2,7,25.1,8.9c-1.1-4.1-4.5-18.5-8.1-48.5
		C109.7,201.7,102.5,204.1,99.1,205.3z"/>
	<path class="st6" d="M116.3,171c-1.3,1.2-2.5,2.5-3.7,3.8c-0.6,0.7-1.2,1.4-1.8,2.1c-0.2,0.2-0.4,0.5-0.6,0.7
		c-0.1,0.2-0.2,0.3-0.4,0.5c-0.1,0.1-0.2,0.2-0.2,0.3c-0.1,0.2-0.2,0.3-0.3,0.5c-0.3,0.4-0.6,0.8-0.9,1.3c0,0,0,0.1-0.1,0.1
		c0,0.1-0.1,0.1-0.1,0.2c-0.2,0.3-0.4,0.6-0.6,0.8c0,0.1-0.1,0.1-0.1,0.2c-0.2,0.2-0.3,0.5-0.4,0.7c0,0.1-0.1,0.1-0.1,0.2
		c-0.1,0.2-0.3,0.4-0.4,0.7c-0.7,1.3-1.5,2.5-2.1,3.9c-0.1,0.2-0.2,0.4-0.3,0.7c-0.1,0.1-0.1,0.2-0.2,0.3c-0.1,0.2-0.2,0.5-0.3,0.7
		c-0.1,0.3-0.3,0.6-0.4,0.9c-0.1,0.3-0.3,0.6-0.4,0.9c4.1-1.2,9.2-2.5,14.9-3.7C117.3,181.9,116.8,176.6,116.3,171z"/>
	<path class="st6" d="M102.7,191.2c-0.1,0.3-0.2,0.5-0.3,0.8l0,0c0.2-0.5,0.4-1,0.6-1.5C102.8,190.7,102.8,190.9,102.7,191.2z"/>
	<path class="st7" d="M181.8,190.5c-1,3.4,1.4,6.9,5.4,7.7c8.3,1.8,16.2,4.4,23.6,7.8c0.3,0.1,0.5,0.2,0.8,0.3
		c-0.5-5.5-1.9-10.7-3.9-15.6c-5.4-1.9-11-3.5-16.7-4.8C186.9,185,182.8,187.1,181.8,190.5z"/>
	<path class="st7" d="M99.3,203.7c0-0.2,0.1-0.4,0.1-0.5C99.4,203.3,99.3,203.5,99.3,203.7z"/>
	<path class="st7" d="M99.1,205.3L99.1,205.3c0-0.1,0-0.2,0-0.3C99.1,205.1,99.1,205.2,99.1,205.3z"/>
	<path class="st7" d="M100.6,197.4c-0.1,0.5-0.2,0.9-0.4,1.4c0.1-0.3,0.2-0.7,0.3-1C100.5,197.6,100.6,197.5,100.6,197.4z"/>
	<path class="st7" d="M100.9,196.3c0.1-0.2,0.1-0.5,0.2-0.7C101.1,195.8,101,196.1,100.9,196.3z"/>
	<path class="st7" d="M99.7,201.5C99.7,201.5,99.7,201.4,99.7,201.5c0,0,0,0.2-0.1,0.3C99.6,201.7,99.7,201.6,99.7,201.5L99.7,201.5
		z"/>
	<path class="st7" d="M102.1,192.6c0.1-0.2,0.1-0.4,0.2-0.6C102.3,192.2,102.2,192.4,102.1,192.6z"/>
	<path class="st7" d="M100,200c0.1-0.3,0.1-0.5,0.2-0.8C100.1,199.5,100,199.7,100,200z"/>
	<path class="st7" d="M101.6,194.2c0.1-0.2,0.1-0.3,0.2-0.5C101.7,193.9,101.6,194,101.6,194.2z"/>
	<path class="st7" d="M149.5,195.4c4.1-0.2,7.3-3.2,7-6.7s-3.8-6.2-7.9-5.9c-11.5,0.6-21.9,2.2-30.7,4.1c0.5,4.5,1,8.8,1.5,12.8
		C127.7,197.7,138.1,196,149.5,195.4z"/>
	<path class="st7" d="M117.8,186.8c-5.7,1.2-10.8,2.5-14.9,3.7c-0.2,0.5-0.4,1-0.6,1.5c-0.1,0.2-0.2,0.4-0.2,0.6
		c-0.1,0.4-0.3,0.7-0.4,1.1c-0.1,0.2-0.1,0.3-0.2,0.5c-0.1,0.5-0.3,0.9-0.4,1.4c-0.1,0.2-0.1,0.5-0.2,0.7c-0.1,0.4-0.2,0.7-0.3,1.1
		c0,0.1-0.1,0.3-0.1,0.4c-0.1,0.3-0.2,0.7-0.3,1c0,0.1-0.1,0.3-0.1,0.4c-0.1,0.3-0.1,0.5-0.2,0.8c-0.1,0.5-0.2,0.9-0.3,1.4v0.1l0,0
		c0,0.1,0,0.2-0.1,0.3c-0.1,0.4-0.2,0.9-0.2,1.3c0,0.2-0.1,0.4-0.1,0.5c-0.1,0.5-0.1,0.9-0.2,1.4c0,0.1,0,0.2,0,0.3
		c3.4-1.2,10.6-3.6,20.2-5.7C118.8,195.6,118.3,191.3,117.8,186.8z"/>
</g>
</svg>
