<svg class="svg-icon" style="width: 1em; height: 1em;vertical-align: middle;fill: currentColor;overflow: hidden;" viewBox="0 0 1024 1024" version="1.1" xmlns="http://www.w3.org/2000/svg"><path d="M845.529259 541.978778c0-45.529963-35.293831-83.723843-80.826863-83.723843l-28.976962 0L735.725434 348.45111c0-120.348995-98.607832-219.262796-220.026182-219.262796-120.93228 0-219.33852 97.40954-220.11828 218.156602-0.021489 0.481977 0.041956 110.914112 0.041956 110.914112l-25.573445 0c-45.529963 0-84.234473 38.189787-84.234473 83.723843l0 274.80581c0 45.529963 38.70451 80.693834 84.234473 80.693834l494.65189 0c45.533033 0 80.826863-35.163871 80.826863-80.693834L845.528236 541.978778 845.529259 541.978778 845.529259 541.978778zM461.46914 620.990297c0-30.355355 25.082258-54.964846 55.438637-54.964846 30.351262 0 54.43989 24.609491 54.43989 54.964846 0 20.329001-11.31265 38.038338-28.003797 47.544853l0 34.895765c0 15.177678-12.491499 27.479865-27.669176 27.479865-15.177678 0-27.67327-12.302187-27.67327-27.479865l0-34.895765C474.827379 659.028635 461.46914 641.319298 461.46914 620.990297L461.46914 620.990297zM405.434939 348.422458c0-58.854433 49.652863-109.312638 110.264313-109.312638 60.451814 0 109.862153 46.802956 110.122073 107.191324 0 0.159636 0.096191 2.145873 0.096191 2.145873l0 109.807918-220.491787 0L405.434939 348.422458 405.434939 348.422458zM405.434939 348.422458"  /></svg>